# xmcd
#
# Track frame offsets:
# 150
# 16517
# 36057
# 55030
# 72378
# 88731
# 101643
# 115893
# 130026
# 144884
# 157592
# 174653
# 190654
# 204469
# 219443
# 234607
# 255863
#
# Disc length: 3648 seconds
#
#
# Revision: 0
# Processed by: cddbd v1.5.1PL2 Copyright (c) Steve Scherf et al.
# Submitted via: FreeRIP 2.942 
#
DISCID=d30e3e11
DTITLE=Gaucho Romario - Gaiteiro e Cantador
DYEAR=1900
DGENRE=Ballad
TTITLE0=Catando Enroeco
TTITLE1=Pacholeando
TTITLE2=Como Manda o Figorino
TTITLE3=Bugio Cabeça
TTITLE4=A Bailantas do Sebastião
TTITLE5=De Carreirinha
TTITLE6=Dança do Isqueiro
TTITLE7=Forro do Tchê
TTITLE8=Vanerro sem Preconceito
TTITLE9=O Fuzarqueiro
TTITLE10=Levanta Nêgo
TTITLE11=Na Manha do Xote
TTITLE12=Recuerdos e Saudade
TTITLE13=Na Pura Traição
TTITLE14=Chapéu de Vaca
TTITLE15=Gaiteiro e Cantador
TTITLE16=Milongão do Coração
EXTD=
EXTT0=
EXTT1=
EXTT2=
EXTT3=
EXTT4=
EXTT5=
EXTT6=
EXTT7=
EXTT8=
EXTT9=
EXTT10=
EXTT11=
EXTT12=
EXTT13=
EXTT14=
EXTT15=
EXTT16=
PLAYORDER=
